<mxfile host="app.diagrams.net" agent="Mozilla/5.0 (Windows NT 10.0; Win64; x64) AppleWebKit/537.36 (KHTML, like Gecko) Chrome/136.0.0.0 Safari/537.36" version="26.1.1" pages="2">
  <diagram name="Page-1" id="mqDrHqL7_0tWYOv1A6ZR">
    <mxGraphModel dx="2200" dy="1150" grid="1" gridSize="10" guides="1" tooltips="1" connect="1" arrows="1" fold="1" page="1" pageScale="1" pageWidth="850" pageHeight="1100" math="0" shadow="0">
      <root>
        <mxCell id="0" />
        <mxCell id="1" parent="0" />
        <mxCell id="vPwWLUEZi9Ga-wIyR8SC-85" value="Student" style="whiteSpace=wrap;strokeWidth=2;" vertex="1" parent="1">
          <mxGeometry x="402" y="20" width="116" height="54" as="geometry" />
        </mxCell>
        <mxCell id="vPwWLUEZi9Ga-wIyR8SC-86" value="Parent" style="whiteSpace=wrap;strokeWidth=2;" vertex="1" parent="1">
          <mxGeometry x="895" y="294" width="107" height="54" as="geometry" />
        </mxCell>
        <mxCell id="vPwWLUEZi9Ga-wIyR8SC-87" value="Admin" style="whiteSpace=wrap;strokeWidth=2;" vertex="1" parent="1">
          <mxGeometry x="950" y="1195" width="105" height="54" as="geometry" />
        </mxCell>
        <mxCell id="vPwWLUEZi9Ga-wIyR8SC-88" value="Industry" style="whiteSpace=wrap;strokeWidth=2;" vertex="1" parent="1">
          <mxGeometry x="580" y="339" width="118" height="54" as="geometry" />
        </mxCell>
        <mxCell id="vPwWLUEZi9Ga-wIyR8SC-94" value="Login/Register" style="ellipse;aspect=fixed;strokeWidth=2;whiteSpace=wrap;" vertex="1" parent="1">
          <mxGeometry x="70" y="943" width="119" height="119" as="geometry" />
        </mxCell>
        <mxCell id="vPwWLUEZi9Ga-wIyR8SC-95" value="Select Course &amp; Learning Path" style="ellipse;aspect=fixed;strokeWidth=2;whiteSpace=wrap;" vertex="1" parent="1">
          <mxGeometry x="353" y="895" width="215" height="215" as="geometry" />
        </mxCell>
        <mxCell id="vPwWLUEZi9Ga-wIyR8SC-96" value="Submit Feedback" style="ellipse;aspect=fixed;strokeWidth=2;whiteSpace=wrap;" vertex="1" parent="1">
          <mxGeometry x="831" y="540" width="137" height="137" as="geometry" />
        </mxCell>
        <mxCell id="vPwWLUEZi9Ga-wIyR8SC-97" value="View Progress" style="ellipse;aspect=fixed;strokeWidth=2;whiteSpace=wrap;" vertex="1" parent="1">
          <mxGeometry x="880" y="90" width="113" height="113" as="geometry" />
        </mxCell>
        <mxCell id="vPwWLUEZi9Ga-wIyR8SC-98" value="Virtual Interview / Job Notifications" style="ellipse;aspect=fixed;strokeWidth=2;whiteSpace=wrap;" vertex="1" parent="1">
          <mxGeometry x="187" y="502" width="215" height="215" as="geometry" />
        </mxCell>
        <mxCell id="vPwWLUEZi9Ga-wIyR8SC-99" value="Manage Student &amp; Courses" style="ellipse;aspect=fixed;strokeWidth=2;whiteSpace=wrap;" vertex="1" parent="1">
          <mxGeometry x="846" y="900" width="205" height="205" as="geometry" />
        </mxCell>
        <mxCell id="vPwWLUEZi9Ga-wIyR8SC-100" value="Parent Dashboard &amp; Reports" style="ellipse;aspect=fixed;strokeWidth=2;whiteSpace=wrap;" vertex="1" parent="1">
          <mxGeometry x="1010" y="502" width="215" height="215" as="geometry" />
        </mxCell>
        <mxCell id="vPwWLUEZi9Ga-wIyR8SC-101" value="Industry Feedback &amp; Job Offers" style="ellipse;aspect=fixed;strokeWidth=2;whiteSpace=wrap;" vertex="1" parent="1">
          <mxGeometry x="535" y="501" width="215" height="215" as="geometry" />
        </mxCell>
        <mxCell id="vPwWLUEZi9Ga-wIyR8SC-104" value="Course &amp; Path Selection" style="curved=1;startArrow=none;endArrow=block;exitX=0.5;exitY=1;entryX=0.5;entryY=0;rounded=0;" edge="1" parent="1">
          <mxGeometry relative="1" as="geometry">
            <Array as="points" />
            <mxPoint x="459.87000000000023" y="74" as="sourcePoint" />
            <mxPoint x="460.37" y="895" as="targetPoint" />
          </mxGeometry>
        </mxCell>
        <mxCell id="vPwWLUEZi9Ga-wIyR8SC-123" value="Job Offers, Feedback" style="curved=1;startArrow=none;endArrow=block;exitX=0.5;exitY=1;entryX=0.5;entryY=0;rounded=0;" edge="1" parent="1" source="vPwWLUEZi9Ga-wIyR8SC-88" target="vPwWLUEZi9Ga-wIyR8SC-101">
          <mxGeometry relative="1" as="geometry">
            <Array as="points" />
          </mxGeometry>
        </mxCell>
        <mxCell id="vPwWLUEZi9Ga-wIyR8SC-129" value="Job Notification" style="shape=partialRectangle;whiteSpace=wrap;html=1;left=0;right=0;fillColor=none;" vertex="1" parent="1">
          <mxGeometry x="214.5" y="772" width="160" height="73" as="geometry" />
        </mxCell>
        <mxCell id="vPwWLUEZi9Ga-wIyR8SC-130" value="Feedback Records" style="shape=partialRectangle;whiteSpace=wrap;html=1;left=0;right=0;fillColor=none;" vertex="1" parent="1">
          <mxGeometry x="820" y="770" width="180" height="60" as="geometry" />
        </mxCell>
        <mxCell id="vPwWLUEZi9Ga-wIyR8SC-131" value="Student Record" style="shape=partialRectangle;whiteSpace=wrap;html=1;left=0;right=0;fillColor=none;" vertex="1" parent="1">
          <mxGeometry x="67" y="1220" width="203" height="60" as="geometry" />
        </mxCell>
        <mxCell id="vPwWLUEZi9Ga-wIyR8SC-132" value="Course Record" style="shape=partialRectangle;whiteSpace=wrap;html=1;left=0;right=0;fillColor=none;" vertex="1" parent="1">
          <mxGeometry x="490" y="1220" width="120" height="60" as="geometry" />
        </mxCell>
        <mxCell id="vPwWLUEZi9Ga-wIyR8SC-133" value="Progress Report" style="shape=partialRectangle;whiteSpace=wrap;html=1;left=0;right=0;fillColor=none;" vertex="1" parent="1">
          <mxGeometry x="1150" y="339" width="120" height="60" as="geometry" />
        </mxCell>
        <mxCell id="vPwWLUEZi9Ga-wIyR8SC-134" value="" style="endArrow=classic;html=1;rounded=0;entryX=0.5;entryY=0;entryDx=0;entryDy=0;" edge="1" parent="1" target="vPwWLUEZi9Ga-wIyR8SC-94">
          <mxGeometry width="50" height="50" relative="1" as="geometry">
            <mxPoint x="400" y="40" as="sourcePoint" />
            <mxPoint x="140" y="270" as="targetPoint" />
            <Array as="points">
              <mxPoint x="150" y="40" />
            </Array>
          </mxGeometry>
        </mxCell>
        <mxCell id="vPwWLUEZi9Ga-wIyR8SC-135" value="Register/Login info" style="text;html=1;align=center;verticalAlign=middle;resizable=0;points=[];autosize=1;strokeColor=none;fillColor=none;" vertex="1" parent="1">
          <mxGeometry x="40" y="348" width="120" height="30" as="geometry" />
        </mxCell>
        <mxCell id="vPwWLUEZi9Ga-wIyR8SC-136" value="" style="endArrow=classic;html=1;rounded=0;exitX=0.25;exitY=1;exitDx=0;exitDy=0;entryX=0.5;entryY=0;entryDx=0;entryDy=0;" edge="1" parent="1" source="vPwWLUEZi9Ga-wIyR8SC-85" target="vPwWLUEZi9Ga-wIyR8SC-98">
          <mxGeometry width="50" height="50" relative="1" as="geometry">
            <mxPoint x="680" y="330" as="sourcePoint" />
            <mxPoint x="730" y="280" as="targetPoint" />
            <Array as="points">
              <mxPoint x="431" y="170" />
              <mxPoint x="300" y="170" />
            </Array>
          </mxGeometry>
        </mxCell>
        <mxCell id="vPwWLUEZi9Ga-wIyR8SC-137" value="View, Jobs, Interview" style="edgeLabel;html=1;align=center;verticalAlign=middle;resizable=0;points=[];" vertex="1" connectable="0" parent="vPwWLUEZi9Ga-wIyR8SC-136">
          <mxGeometry x="-0.4075" y="14" relative="1" as="geometry">
            <mxPoint x="1" as="offset" />
          </mxGeometry>
        </mxCell>
        <mxCell id="vPwWLUEZi9Ga-wIyR8SC-138" value="" style="endArrow=classic;html=1;rounded=0;exitX=0.5;exitY=1;exitDx=0;exitDy=0;entryX=0.25;entryY=0;entryDx=0;entryDy=0;" edge="1" parent="1" source="vPwWLUEZi9Ga-wIyR8SC-94" target="vPwWLUEZi9Ga-wIyR8SC-131">
          <mxGeometry width="50" height="50" relative="1" as="geometry">
            <mxPoint x="680" y="1100" as="sourcePoint" />
            <mxPoint x="131" y="1180" as="targetPoint" />
            <Array as="points">
              <mxPoint x="129" y="1120" />
            </Array>
          </mxGeometry>
        </mxCell>
        <mxCell id="vPwWLUEZi9Ga-wIyR8SC-139" value="" style="endArrow=classic;html=1;rounded=0;exitX=0.75;exitY=1;exitDx=0;exitDy=0;entryX=0;entryY=0;entryDx=0;entryDy=0;" edge="1" parent="1" source="vPwWLUEZi9Ga-wIyR8SC-85" target="vPwWLUEZi9Ga-wIyR8SC-96">
          <mxGeometry width="50" height="50" relative="1" as="geometry">
            <mxPoint x="550" y="330" as="sourcePoint" />
            <mxPoint x="600" y="280" as="targetPoint" />
            <Array as="points">
              <mxPoint x="489" y="280" />
              <mxPoint x="851" y="280" />
            </Array>
          </mxGeometry>
        </mxCell>
        <mxCell id="vPwWLUEZi9Ga-wIyR8SC-143" value="" style="endArrow=classic;html=1;rounded=0;exitX=0;exitY=1;exitDx=0;exitDy=0;entryX=0.75;entryY=0;entryDx=0;entryDy=0;" edge="1" parent="1" source="vPwWLUEZi9Ga-wIyR8SC-95" target="vPwWLUEZi9Ga-wIyR8SC-131">
          <mxGeometry width="50" height="50" relative="1" as="geometry">
            <mxPoint x="680" y="1070" as="sourcePoint" />
            <mxPoint x="730" y="1020" as="targetPoint" />
            <Array as="points">
              <mxPoint x="219" y="1080" />
            </Array>
          </mxGeometry>
        </mxCell>
        <mxCell id="vPwWLUEZi9Ga-wIyR8SC-144" value="" style="endArrow=classic;html=1;rounded=0;exitX=0.5;exitY=1;exitDx=0;exitDy=0;entryX=1;entryY=0.5;entryDx=0;entryDy=0;" edge="1" parent="1" source="vPwWLUEZi9Ga-wIyR8SC-101" target="vPwWLUEZi9Ga-wIyR8SC-129">
          <mxGeometry width="50" height="50" relative="1" as="geometry">
            <mxPoint x="680" y="760" as="sourcePoint" />
            <mxPoint x="730" y="710" as="targetPoint" />
            <Array as="points">
              <mxPoint x="640" y="810" />
            </Array>
          </mxGeometry>
        </mxCell>
        <mxCell id="vPwWLUEZi9Ga-wIyR8SC-145" value="" style="endArrow=classic;html=1;rounded=0;exitX=0;exitY=1;exitDx=0;exitDy=0;entryX=0.75;entryY=1;entryDx=0;entryDy=0;" edge="1" parent="1" source="vPwWLUEZi9Ga-wIyR8SC-99" target="vPwWLUEZi9Ga-wIyR8SC-131">
          <mxGeometry width="50" height="50" relative="1" as="geometry">
            <mxPoint x="680" y="1070" as="sourcePoint" />
            <mxPoint x="730" y="1020" as="targetPoint" />
            <Array as="points">
              <mxPoint x="876" y="1310" />
              <mxPoint x="219" y="1320" />
            </Array>
          </mxGeometry>
        </mxCell>
        <mxCell id="vPwWLUEZi9Ga-wIyR8SC-146" value="" style="endArrow=classic;html=1;rounded=0;entryX=0.5;entryY=0;entryDx=0;entryDy=0;exitX=0;exitY=1;exitDx=0;exitDy=0;" edge="1" parent="1" source="vPwWLUEZi9Ga-wIyR8SC-99" target="vPwWLUEZi9Ga-wIyR8SC-132">
          <mxGeometry width="50" height="50" relative="1" as="geometry">
            <mxPoint x="640" y="1080" as="sourcePoint" />
            <mxPoint x="730" y="1020" as="targetPoint" />
            <Array as="points">
              <mxPoint x="850" y="1075" />
              <mxPoint x="850" y="1170" />
              <mxPoint x="550" y="1170" />
            </Array>
          </mxGeometry>
        </mxCell>
        <mxCell id="vPwWLUEZi9Ga-wIyR8SC-148" value="" style="endArrow=classic;html=1;rounded=0;exitX=0.5;exitY=1;exitDx=0;exitDy=0;entryX=0;entryY=0.5;entryDx=0;entryDy=0;" edge="1" parent="1" source="vPwWLUEZi9Ga-wIyR8SC-95" target="vPwWLUEZi9Ga-wIyR8SC-132">
          <mxGeometry width="50" height="50" relative="1" as="geometry">
            <mxPoint x="680" y="1070" as="sourcePoint" />
            <mxPoint x="730" y="1020" as="targetPoint" />
            <Array as="points">
              <mxPoint x="460" y="1250" />
            </Array>
          </mxGeometry>
        </mxCell>
        <mxCell id="vPwWLUEZi9Ga-wIyR8SC-149" value="" style="endArrow=classic;html=1;rounded=0;exitX=1;exitY=0.5;exitDx=0;exitDy=0;entryX=0;entryY=0;entryDx=0;entryDy=0;" edge="1" parent="1" source="vPwWLUEZi9Ga-wIyR8SC-85" target="vPwWLUEZi9Ga-wIyR8SC-97">
          <mxGeometry width="50" height="50" relative="1" as="geometry">
            <mxPoint x="680" y="300" as="sourcePoint" />
            <mxPoint x="730" y="250" as="targetPoint" />
            <Array as="points">
              <mxPoint x="897" y="47" />
            </Array>
          </mxGeometry>
        </mxCell>
        <mxCell id="vPwWLUEZi9Ga-wIyR8SC-150" value="View Progress" style="text;html=1;align=center;verticalAlign=middle;resizable=0;points=[];autosize=1;strokeColor=none;fillColor=none;" vertex="1" parent="1">
          <mxGeometry x="650" y="8" width="100" height="30" as="geometry" />
        </mxCell>
        <mxCell id="vPwWLUEZi9Ga-wIyR8SC-151" value="" style="endArrow=classic;html=1;rounded=0;entryX=0;entryY=0;entryDx=0;entryDy=0;exitX=1;exitY=1;exitDx=0;exitDy=0;" edge="1" parent="1" source="vPwWLUEZi9Ga-wIyR8SC-97" target="vPwWLUEZi9Ga-wIyR8SC-133">
          <mxGeometry width="50" height="50" relative="1" as="geometry">
            <mxPoint x="930" y="200" as="sourcePoint" />
            <mxPoint x="660" y="300" as="targetPoint" />
            <Array as="points">
              <mxPoint x="1150" y="186" />
              <mxPoint x="1150" y="280" />
            </Array>
          </mxGeometry>
        </mxCell>
        <mxCell id="vPwWLUEZi9Ga-wIyR8SC-152" value="" style="endArrow=classic;html=1;rounded=0;exitX=0.5;exitY=0;exitDx=0;exitDy=0;entryX=1;entryY=0.5;entryDx=0;entryDy=0;" edge="1" parent="1" source="vPwWLUEZi9Ga-wIyR8SC-133" target="vPwWLUEZi9Ga-wIyR8SC-97">
          <mxGeometry width="50" height="50" relative="1" as="geometry">
            <mxPoint x="610" y="350" as="sourcePoint" />
            <mxPoint x="660" y="300" as="targetPoint" />
            <Array as="points">
              <mxPoint x="1210" y="150" />
            </Array>
          </mxGeometry>
        </mxCell>
        <mxCell id="vPwWLUEZi9Ga-wIyR8SC-153" value="" style="endArrow=classic;html=1;rounded=0;exitX=0.25;exitY=1;exitDx=0;exitDy=0;entryX=0;entryY=0;entryDx=0;entryDy=0;" edge="1" parent="1" source="vPwWLUEZi9Ga-wIyR8SC-130" target="vPwWLUEZi9Ga-wIyR8SC-99">
          <mxGeometry width="50" height="50" relative="1" as="geometry">
            <mxPoint x="620" y="810" as="sourcePoint" />
            <mxPoint x="670" y="760" as="targetPoint" />
          </mxGeometry>
        </mxCell>
        <mxCell id="vPwWLUEZi9Ga-wIyR8SC-154" value="" style="endArrow=classic;html=1;rounded=0;exitX=0.5;exitY=0;exitDx=0;exitDy=0;entryX=0.75;entryY=1;entryDx=0;entryDy=0;" edge="1" parent="1" source="vPwWLUEZi9Ga-wIyR8SC-99" target="vPwWLUEZi9Ga-wIyR8SC-130">
          <mxGeometry width="50" height="50" relative="1" as="geometry">
            <mxPoint x="620" y="810" as="sourcePoint" />
            <mxPoint x="670" y="760" as="targetPoint" />
            <Array as="points" />
          </mxGeometry>
        </mxCell>
        <mxCell id="vPwWLUEZi9Ga-wIyR8SC-155" value="" style="endArrow=classic;html=1;rounded=0;entryX=1;entryY=0;entryDx=0;entryDy=0;exitX=0.75;exitY=1;exitDx=0;exitDy=0;" edge="1" parent="1" source="vPwWLUEZi9Ga-wIyR8SC-133" target="vPwWLUEZi9Ga-wIyR8SC-100">
          <mxGeometry width="50" height="50" relative="1" as="geometry">
            <mxPoint x="1020" y="630" as="sourcePoint" />
            <mxPoint x="1070" y="580" as="targetPoint" />
            <Array as="points">
              <mxPoint x="1240" y="530" />
            </Array>
          </mxGeometry>
        </mxCell>
        <mxCell id="vPwWLUEZi9Ga-wIyR8SC-156" value="" style="endArrow=classic;html=1;rounded=0;entryX=0.25;entryY=1;entryDx=0;entryDy=0;exitX=0.5;exitY=0;exitDx=0;exitDy=0;" edge="1" parent="1" source="vPwWLUEZi9Ga-wIyR8SC-100" target="vPwWLUEZi9Ga-wIyR8SC-133">
          <mxGeometry width="50" height="50" relative="1" as="geometry">
            <mxPoint x="1020" y="630" as="sourcePoint" />
            <mxPoint x="1070" y="580" as="targetPoint" />
            <Array as="points">
              <mxPoint x="1180" y="502" />
            </Array>
          </mxGeometry>
        </mxCell>
        <mxCell id="vPwWLUEZi9Ga-wIyR8SC-159" value="" style="endArrow=classic;html=1;rounded=0;exitX=1;exitY=1;exitDx=0;exitDy=0;entryX=1;entryY=0;entryDx=0;entryDy=0;" edge="1" parent="1" source="vPwWLUEZi9Ga-wIyR8SC-98" target="vPwWLUEZi9Ga-wIyR8SC-129">
          <mxGeometry width="50" height="50" relative="1" as="geometry">
            <mxPoint x="610" y="790" as="sourcePoint" />
            <mxPoint x="660" y="740" as="targetPoint" />
          </mxGeometry>
        </mxCell>
        <mxCell id="vPwWLUEZi9Ga-wIyR8SC-160" value="" style="endArrow=classic;html=1;rounded=0;exitX=0;exitY=0;exitDx=0;exitDy=0;entryX=0;entryY=1;entryDx=0;entryDy=0;" edge="1" parent="1" source="vPwWLUEZi9Ga-wIyR8SC-129" target="vPwWLUEZi9Ga-wIyR8SC-98">
          <mxGeometry width="50" height="50" relative="1" as="geometry">
            <mxPoint x="610" y="790" as="sourcePoint" />
            <mxPoint x="660" y="740" as="targetPoint" />
          </mxGeometry>
        </mxCell>
        <mxCell id="vPwWLUEZi9Ga-wIyR8SC-161" value="" style="endArrow=classic;html=1;rounded=0;exitX=0;exitY=1;exitDx=0;exitDy=0;entryX=1;entryY=0;entryDx=0;entryDy=0;" edge="1" parent="1" source="vPwWLUEZi9Ga-wIyR8SC-100" target="vPwWLUEZi9Ga-wIyR8SC-130">
          <mxGeometry width="50" height="50" relative="1" as="geometry">
            <mxPoint x="970" y="810" as="sourcePoint" />
            <mxPoint x="1020" y="760" as="targetPoint" />
            <Array as="points">
              <mxPoint x="1000" y="685" />
            </Array>
          </mxGeometry>
        </mxCell>
        <mxCell id="vPwWLUEZi9Ga-wIyR8SC-162" value="" style="endArrow=classic;html=1;rounded=0;entryX=0.5;entryY=0;entryDx=0;entryDy=0;exitX=0.5;exitY=1;exitDx=0;exitDy=0;" edge="1" parent="1" source="vPwWLUEZi9Ga-wIyR8SC-96" target="vPwWLUEZi9Ga-wIyR8SC-130">
          <mxGeometry width="50" height="50" relative="1" as="geometry">
            <mxPoint x="970" y="810" as="sourcePoint" />
            <mxPoint x="1020" y="760" as="targetPoint" />
          </mxGeometry>
        </mxCell>
        <mxCell id="vPwWLUEZi9Ga-wIyR8SC-163" value="" style="endArrow=classic;html=1;rounded=0;exitX=1;exitY=1;exitDx=0;exitDy=0;entryX=0;entryY=0;entryDx=0;entryDy=0;" edge="1" parent="1" source="vPwWLUEZi9Ga-wIyR8SC-101" target="vPwWLUEZi9Ga-wIyR8SC-130">
          <mxGeometry width="50" height="50" relative="1" as="geometry">
            <mxPoint x="970" y="810" as="sourcePoint" />
            <mxPoint x="1020" y="760" as="targetPoint" />
            <Array as="points">
              <mxPoint x="820" y="685" />
            </Array>
          </mxGeometry>
        </mxCell>
        <mxCell id="vPwWLUEZi9Ga-wIyR8SC-164" value="" style="endArrow=classic;html=1;rounded=0;exitX=1;exitY=1;exitDx=0;exitDy=0;entryX=0;entryY=0;entryDx=0;entryDy=0;" edge="1" parent="1" source="vPwWLUEZi9Ga-wIyR8SC-86" target="vPwWLUEZi9Ga-wIyR8SC-100">
          <mxGeometry width="50" height="50" relative="1" as="geometry">
            <mxPoint x="1010" y="460" as="sourcePoint" />
            <mxPoint x="1060" y="410" as="targetPoint" />
            <Array as="points">
              <mxPoint x="1002" y="533" />
            </Array>
          </mxGeometry>
        </mxCell>
        <mxCell id="vPwWLUEZi9Ga-wIyR8SC-165" value="Progress Reuest" style="edgeLabel;html=1;align=center;verticalAlign=middle;resizable=0;points=[];" vertex="1" connectable="0" parent="vPwWLUEZi9Ga-wIyR8SC-164">
          <mxGeometry x="-0.4699" y="2" relative="1" as="geometry">
            <mxPoint y="-1" as="offset" />
          </mxGeometry>
        </mxCell>
        <mxCell id="vPwWLUEZi9Ga-wIyR8SC-166" value="" style="endArrow=classic;html=1;rounded=0;exitX=0.75;exitY=0;exitDx=0;exitDy=0;entryX=1;entryY=1;entryDx=0;entryDy=0;" edge="1" parent="1" source="vPwWLUEZi9Ga-wIyR8SC-87" target="vPwWLUEZi9Ga-wIyR8SC-99">
          <mxGeometry width="50" height="50" relative="1" as="geometry">
            <mxPoint x="880" y="1040" as="sourcePoint" />
            <mxPoint x="930" y="990" as="targetPoint" />
          </mxGeometry>
        </mxCell>
        <mxCell id="vPwWLUEZi9Ga-wIyR8SC-168" value="Manage Data" style="edgeLabel;html=1;align=center;verticalAlign=middle;resizable=0;points=[];" vertex="1" connectable="0" parent="vPwWLUEZi9Ga-wIyR8SC-166">
          <mxGeometry x="0.2914" relative="1" as="geometry">
            <mxPoint as="offset" />
          </mxGeometry>
        </mxCell>
        <mxCell id="vPwWLUEZi9Ga-wIyR8SC-167" value="" style="endArrow=classic;html=1;rounded=0;exitX=0.5;exitY=1;exitDx=0;exitDy=0;entryX=0;entryY=0;entryDx=0;entryDy=0;" edge="1" parent="1" source="vPwWLUEZi9Ga-wIyR8SC-99" target="vPwWLUEZi9Ga-wIyR8SC-87">
          <mxGeometry width="50" height="50" relative="1" as="geometry">
            <mxPoint x="880" y="1040" as="sourcePoint" />
            <mxPoint x="930" y="990" as="targetPoint" />
          </mxGeometry>
        </mxCell>
      </root>
    </mxGraphModel>
  </diagram>
  <diagram id="0BxsqECXu9id0J0u5XGK" name="Page-2">
    <mxGraphModel grid="1" page="1" gridSize="10" guides="1" tooltips="1" connect="1" arrows="1" fold="1" pageScale="1" pageWidth="850" pageHeight="1100" math="0" shadow="0">
      <root>
        <mxCell id="0" />
        <mxCell id="1" parent="0" />
      </root>
    </mxGraphModel>
  </diagram>
</mxfile>
